<svg width="24" height="24" viewBox="0 0 24 24" fill="none" xmlns="http://www.w3.org/2000/svg">
  <path d="M3.16484 10.968L14.4825 6.21897C15.5997 5.72428 19.3884 4.14125 19.3884 4.14125C19.3884 4.14125 21.1371 3.44868 20.9914 5.13064C20.9428 5.82322 20.5542 8.24722 20.1656 10.8691L18.9513 18.6358C18.9513 18.6358 18.8541 19.7736 18.0284 19.9715C17.2026 20.1694 15.8426 19.2789 15.5997 19.0811C15.4054 18.9326 11.9567 16.7065 10.6938 15.6182C10.3537 15.3214 9.96515 14.7277 10.7423 14.0352C12.491 12.4027 14.5797 10.3744 15.8426 9.08821C16.4255 8.49457 17.0083 7.10942 14.5797 8.79139L7.73077 13.491C7.73077 13.491 6.95359 13.9857 5.49638 13.5405C4.03917 13.0952 2.33909 12.5016 2.33909 12.5016C2.33909 12.5016 1.17332 11.7596 3.16484 10.968Z" fill="#000005"/>
  </svg>
  